<svg id="Layer_1" data-name="Layer 1" xmlns="http://www.w3.org/2000/svg" viewBox="0 0 375.92 58.64"><defs><style>.cls-1{fill:#c42c2c;}</style></defs><title>siva-logo</title><path class="cls-1" d="M368,261.29a27.61,27.61,0,0,0,5.46,2.15,23.14,23.14,0,0,0,11.14.32,11.88,11.88,0,0,0,4.09-1.7,8.78,8.78,0,0,0,2.76-3,8.43,8.43,0,0,0,1-4.21,7.14,7.14,0,0,0-2.23-5.43,22.21,22.21,0,0,0-5.55-3.72c-2.21-1.08-4.61-2.14-7.21-3.16a43.09,43.09,0,0,1-7.21-3.65,20.19,20.19,0,0,1-5.54-5.14,12.72,12.72,0,0,1-2.23-7.74,12.8,12.8,0,0,1,5.1-10.53,17.77,17.77,0,0,1,5.87-2.87,27,27,0,0,1,7.66-1,52.9,52.9,0,0,1,8.83.68,24.46,24.46,0,0,1,6.32,1.83l.16-.08v.16h.08l-.08.24v13h-6v-8.67c-1.35-.32-2.83-.59-4.45-.81a40.4,40.4,0,0,0-5.19-.32,16.73,16.73,0,0,0-4.82.65,12,12,0,0,0-3.64,1.74,8,8,0,0,0-2.31,2.55,6.25,6.25,0,0,0-.81,3.08,6.92,6.92,0,0,0,2.23,5.26,22.67,22.67,0,0,0,5.55,3.77q3.31,1.66,7.21,3.28a45.9,45.9,0,0,1,7.21,3.77,21,21,0,0,1,5.54,5.14,12.11,12.11,0,0,1,2.23,7.45,15.42,15.42,0,0,1-1.34,6.56,14.51,14.51,0,0,1-3.8,5,17.39,17.39,0,0,1-6.08,3.24,27.23,27.23,0,0,1-8.14,1.13,33,33,0,0,1-5.83-.49A39.35,39.35,0,0,1,364.8,267q-1.83-.81-2.88-1.38l.08-.24V252.3h6Z" transform="translate(-361.92 -211.64)"/><path class="cls-1" d="M413,269.31v-5.43H427V234.23H413v-5.42h20.49v35.07h13.77v5.43Zm11.83-52a5.36,5.36,0,0,1,1.45-3.77A4.88,4.88,0,0,1,430,212a5.34,5.34,0,0,1,3.93,1.58,5.15,5.15,0,0,1,1.58,3.77,4.67,4.67,0,0,1-1.58,3.56,5.57,5.57,0,0,1-3.93,1.46,5.08,5.08,0,0,1-3.73-1.46A4.84,4.84,0,0,1,424.78,217.31Z" transform="translate(-361.92 -211.64)"/><path class="cls-1" d="M477.47,261.45h.88L491,228.81h7.05L481,269.31h-7.05l-17.41-40.5H464Z" transform="translate(-361.92 -211.64)"/><path class="cls-1" d="M510.39,232a25.85,25.85,0,0,1,7.86-2.92,43.27,43.27,0,0,1,8.58-.89,15.27,15.27,0,0,1,6.77,1.3,10.93,10.93,0,0,1,4.13,3.36,11.75,11.75,0,0,1,2,4.7,27,27,0,0,1,.53,5.3q0,3.08-.16,6.56c-.11,2.32-.19,4.65-.24,7a58.89,58.89,0,0,0,.48,7.69h5.43v5.27h-10.7l-.72-6.08H534a19.64,19.64,0,0,1-1.46,1.87,13.49,13.49,0,0,1-2.56,2.22,16.53,16.53,0,0,1-3.86,1.91,16,16,0,0,1-5.36.81q-6,0-9.51-3.08a10.64,10.64,0,0,1-3.49-8.43,12.18,12.18,0,0,1,1.83-6.88,11.46,11.46,0,0,1,5.24-4.21,24,24,0,0,1,8.24-1.7,55.2,55.2,0,0,1,10.85.64,28.58,28.58,0,0,0,.12-6.19,8.48,8.48,0,0,0-1.3-3.93,5.44,5.44,0,0,0-2.84-2.07,14.66,14.66,0,0,0-4.51-.6,23.73,23.73,0,0,0-7,1q-3.33,1-5.94,2.06Zm12,32.64a11.79,11.79,0,0,0,4.21-.73A13,13,0,0,0,530,262a12,12,0,0,0,2.43-2.47,11.67,11.67,0,0,0,1.46-2.55v-5.67a45.44,45.44,0,0,0-7.77-.73,21.54,21.54,0,0,0-6.16.77,8.54,8.54,0,0,0-4.05,2.39,6.06,6.06,0,0,0-1.46,4.21,6.66,6.66,0,0,0,1.82,4.65Q518.09,264.62,522.38,264.61Z" transform="translate(-361.92 -211.64)"/><path class="cls-1" d="M578.43,212.61h13.2v42.85c0,.48,0,1.09.09,1.82s.12,1.5.2,2.31.17,1.6.28,2.39.22,1.47.33,2.06H598v5.27H587.1l-.81-6.24H586a14.25,14.25,0,0,1-5.3,5.14,15.69,15.69,0,0,1-8.12,2.07q-9.12,0-13.45-5.14t-4.32-16a25.92,25.92,0,0,1,1.45-9,17.44,17.44,0,0,1,4.16-6.56,18,18,0,0,1,6.51-4,24.69,24.69,0,0,1,8.48-1.38c1.13,0,2.14,0,3,.08s1.71.14,2.46.24a16.47,16.47,0,0,1,2.14.45l2.23.61V218h-6.81Zm-4.82,52.24a11.14,11.14,0,0,0,7.75-2.55,13.71,13.71,0,0,0,3.88-7.65v-18.8a12.6,12.6,0,0,0-4-1.78,24.9,24.9,0,0,0-5.85-.56q-6.46,0-10.17,3.76t-3.72,11.87a29.53,29.53,0,0,0,.61,6.19,13.89,13.89,0,0,0,2,5,10,10,0,0,0,3.75,3.32A12.32,12.32,0,0,0,573.61,264.85Z" transform="translate(-361.92 -211.64)"/><path class="cls-1" d="M607.59,232a25.85,25.85,0,0,1,7.86-2.92,43.2,43.2,0,0,1,8.58-.89,15.27,15.27,0,0,1,6.77,1.3,10.93,10.93,0,0,1,4.13,3.36,11.75,11.75,0,0,1,2,4.7,27,27,0,0,1,.53,5.3c0,2.05-.06,4.24-.16,6.56s-.19,4.65-.25,7a58.84,58.84,0,0,0,.49,7.69H643v5.27h-10.7l-.72-6.08h-.41a21.45,21.45,0,0,1-1.46,1.87,13.8,13.8,0,0,1-2.56,2.22,16.53,16.53,0,0,1-3.86,1.91,16,16,0,0,1-5.36.81q-6,0-9.51-3.08a10.64,10.64,0,0,1-3.49-8.43,12.26,12.26,0,0,1,1.82-6.88,11.49,11.49,0,0,1,5.25-4.21,24,24,0,0,1,8.24-1.7,55.2,55.2,0,0,1,10.85.64,28.58,28.58,0,0,0,.12-6.19,8.48,8.48,0,0,0-1.3-3.93,5.48,5.48,0,0,0-2.84-2.07,14.66,14.66,0,0,0-4.51-.6,23.73,23.73,0,0,0-7,1c-2.23.67-4.2,1.36-5.94,2.06Zm12,32.64a11.82,11.82,0,0,0,4.21-.73,13,13,0,0,0,3.4-1.86,12.58,12.58,0,0,0,2.43-2.47,11.67,11.67,0,0,0,1.46-2.55v-5.67a45.45,45.45,0,0,0-7.78-.73,21.51,21.51,0,0,0-6.15.77,8.54,8.54,0,0,0-4,2.39,6.06,6.06,0,0,0-1.46,4.21,6.66,6.66,0,0,0,1.82,4.65Q615.29,264.62,619.58,264.61Z" transform="translate(-361.92 -211.64)"/><path class="cls-1" d="M682.84,258.37a4.62,4.62,0,0,0-2-4,16.47,16.47,0,0,0-5-2.26q-3-.85-6.5-1.58a37.76,37.76,0,0,1-6.5-2,14.59,14.59,0,0,1-5-3.28,8,8,0,0,1-2-5.79,10,10,0,0,1,1.34-5.27,11.33,11.33,0,0,1,3.53-3.6,16.09,16.09,0,0,1,5.1-2.11,26.83,26.83,0,0,1,6.07-.68,30,30,0,0,1,9.76,1.41,31.91,31.91,0,0,1,6.52,3l-2.58,5.1q-2.67-1.45-5.77-2.79a19.85,19.85,0,0,0-7.8-1.34,16.61,16.61,0,0,0-3.51.37,12.06,12.06,0,0,0-3.15,1.09,6.4,6.4,0,0,0-2.26,1.9,4.84,4.84,0,0,0-.85,2.88,3.57,3.57,0,0,0,2,3.24,20.75,20.75,0,0,0,5,1.9c2,.52,4.16,1,6.5,1.46a31.83,31.83,0,0,1,6.5,2,14.68,14.68,0,0,1,5,3.49,8.41,8.41,0,0,1,2,5.91,11.44,11.44,0,0,1-4.42,9.23q-4.41,3.64-13.24,3.65a28.09,28.09,0,0,1-5.27-.49,31.53,31.53,0,0,1-4.85-1.29,30,30,0,0,1-4.14-1.82,17.75,17.75,0,0,1-3.07-2.07l3.23-5.27a14.39,14.39,0,0,0,2.58,2,24.71,24.71,0,0,0,3.56,1.82,24.38,24.38,0,0,0,4.16,1.3,21.12,21.12,0,0,0,4.48.48,22,22,0,0,0,4.08-.36,12,12,0,0,0,3.35-1.13,6.23,6.23,0,0,0,2.3-2A5.28,5.28,0,0,0,682.84,258.37Z" transform="translate(-361.92 -211.64)"/><path class="cls-1" d="M731.44,258.37a4.64,4.64,0,0,0-2-4,16.58,16.58,0,0,0-5-2.26q-3-.85-6.5-1.58a37.76,37.76,0,0,1-6.5-2,14.59,14.59,0,0,1-5-3.28,8,8,0,0,1-2-5.79,10,10,0,0,1,1.34-5.27,11.41,11.41,0,0,1,3.52-3.6,16.25,16.25,0,0,1,5.11-2.11,26.83,26.83,0,0,1,6.07-.68,30,30,0,0,1,9.76,1.41,31.91,31.91,0,0,1,6.52,3l-2.58,5.1c-1.78-1-3.7-1.9-5.78-2.79a19.8,19.8,0,0,0-7.79-1.34,16.61,16.61,0,0,0-3.51.37,12.06,12.06,0,0,0-3.15,1.09,6.4,6.4,0,0,0-2.26,1.9,4.84,4.84,0,0,0-.85,2.88,3.57,3.57,0,0,0,2,3.24,20.75,20.75,0,0,0,5,1.9c2,.52,4.16,1,6.5,1.46a31.83,31.83,0,0,1,6.5,2,14.77,14.77,0,0,1,5,3.49,8.41,8.41,0,0,1,2,5.91,11.44,11.44,0,0,1-4.42,9.23q-4.41,3.64-13.24,3.65a28.09,28.09,0,0,1-5.27-.49,32,32,0,0,1-4.86-1.29,30.35,30.35,0,0,1-4.13-1.82,18.26,18.26,0,0,1-3.08-2.07l3.24-5.27a14.39,14.39,0,0,0,2.58,2,25.11,25.11,0,0,0,3.55,1.82,24.78,24.78,0,0,0,4.17,1.3,21.12,21.12,0,0,0,4.48.48,22,22,0,0,0,4.08-.36,12,12,0,0,0,3.35-1.13,6.31,6.31,0,0,0,2.3-2A5.35,5.35,0,0,0,731.44,258.37Z" transform="translate(-361.92 -211.64)"/></svg>